<?xml version="1.0" encoding="UTF-8"?>
<svg width="38px" height="43px" viewBox="0 0 38 43" version="1.1" xmlns="http://www.w3.org/2000/svg" xmlns:xlink="http://www.w3.org/1999/xlink">
    <!-- Generator: Sketch 45.1 (43504) - http://www.bohemiancoding.com/sketch -->
    <title>logo</title>
    <desc>Created with Sketch.</desc>
    <defs></defs>
    <g id="Page-1" stroke="none" stroke-width="1" fill="none" fill-rule="evenodd">
        <g id="Gift-LP-—-1280" transform="translate(-661.000000, -1899.000000)">
            <g id="3" transform="translate(0.000000, 1803.000000)">
                <g id="logo" transform="translate(661.000000, 96.000000)">
                    <polygon id="Path-2" fill="#FFFFFF" points="19.49984 2.6544 34.99984 11.6544 34.99984 30.6544 19.49984 40.1544 2.49984 31.1544 1.99984 11.1544"></polygon>
                    <polygon id="Fill-1" fill="#000000" points="18.5564 0 0 10.7136 0 32.1408 18.5564 42.8544 37.1128 32.1408 37.1128 10.7136"></polygon>
                    <polygon id="Fill-2" fill="#FFFFFF" points="3.68712 30.0122 18.55632 38.5974 33.42552 30.0122 33.42552 12.8414 18.55632 4.2578 3.68672 12.8414"></polygon>
                    <polygon id="Fill-3" fill="#000000" points="16.20532 26.8884 14.81772 23.6844 13.71972 24.9504 12.64932 24.0244 15.22212 21.0552 17.50412 26.326"></polygon>
                    <polygon id="Fill-4" fill="#000000" points="9.61272 23.49072 8.22592 20.28712 7.12752 21.55312 6.05752 20.62552 8.62952 17.65832 10.91192 22.92792"></polygon>
                </g>
            </g>
        </g>
    </g>
</svg>