<?xml version="1.0" encoding="UTF-8"?>
<svg width="48px" height="49px" viewBox="0 0 48 49" version="1.1" xmlns="http://www.w3.org/2000/svg" xmlns:xlink="http://www.w3.org/1999/xlink">
    <!-- Generator: Sketch 46.2 (44496) - http://www.bohemiancoding.com/sketch -->
    <title>Icon</title>
    <desc>Created with Sketch.</desc>
    <defs>
        <path d="M38.2280586,46.2661939 L6.42991336,45.4014103 C2.79617011,45.3022632 -0.0967235583,42.2485308 0.00242359713,38.6142367 L0.86720712,6.81609153 C0.966354275,3.18234828 4.02008666,0.289454612 7.65438073,0.388601768 L39.4525259,1.25338529 C43.0862692,1.35198163 45.9791628,4.40626483 45.8800157,8.0405589 L45.0152322,39.8387041 C44.9166358,43.4724473 41.8623526,46.365341 38.2280586,46.2661939" id="path-1"></path>
        <filter x="-2.2%" y="-2.2%" width="108.7%" height="108.7%" filterUnits="objectBoundingBox" id="filter-2">
            <feOffset dx="2" dy="2" in="SourceAlpha" result="shadowOffsetOuter1"></feOffset>
            <feColorMatrix values="0 0 0 0 0.779682185   0 0 0 0 0.779682185   0 0 0 0 0.779682185  0 0 0 1 0" type="matrix" in="shadowOffsetOuter1"></feColorMatrix>
        </filter>
    </defs>
    <g id="Page-1" stroke="none" stroke-width="1" fill="none" fill-rule="evenodd">
        <g id="Petcube-Bites-UA-LP-—-1280" transform="translate(-218.000000, -1041.000000)">
            <g id="Group-9" transform="translate(0.000000, 754.000000)">
                <g id="Switcher-Copy" transform="translate(194.000000, 264.000000)">
                    <g id="Icon" transform="translate(24.000000, 23.000000)">
                        <g id="Group-3">
                            <g id="Fill-1">
                                <use fill="black" fill-opacity="1" filter="url(#filter-2)" xlink:href="#path-1"></use>
                                <use fill="#FFFFFF" fill-rule="evenodd" xlink:href="#path-1"></use>
                            </g>
                        </g>
                        <path d="M13.7637006,7.9171937 C12.4231989,7.82660588 10.8109337,6.4227422 9.68625874,6.97616942 C8.52594264,7.54692218 8.65712172,9.70320927 7.93538926,10.7759077 C7.2359325,11.81643 5.17518337,12.4955912 5.08459555,13.8360929 C4.99400773,15.1765946 6.94486344,16.1265291 7.49779564,17.2512041 C8.0685484,18.4120153 7.64877534,20.5306812 8.72196874,21.2524136 C9.7619961,21.9518704 11.5480117,20.7776939 12.8885134,20.8682817 C14.2290151,20.9588695 15.8412803,22.3627332 16.9659553,21.809306 C18.1262714,21.2385532 17.9955873,19.0822661 18.7168247,18.0095677 C19.4162815,16.9690454 21.4775256,16.2903792 21.5681135,14.9493825 C21.6587013,13.6088808 19.7078456,12.6589462 19.1544184,11.5342713 C18.5836656,10.3734601 19.0034387,8.2547942 17.9302453,7.53306175 C16.8902179,6.83360498 15.1042023,8.00778152 13.7637006,7.9171937" id="Fill-4" fill="#FFB731"></path>
                        <path d="M36.1305261,40.0056762 L26.0307268,39.3918571 C24.7540821,39.3146347 23.7818719,38.2166905 23.8590943,36.9395508 L24.4729134,26.8397515 C24.5501358,25.5631068 25.6485749,24.5908965 26.9252197,24.668614 L37.0250189,25.281938 C38.3021587,25.3596555 39.2743689,26.4575996 39.1966515,27.7342443 L38.5828324,37.8340436 C38.505115,39.1111834 37.4076658,40.0833936 36.1305261,40.0056762" id="Fill-6" fill="#FFB731"></path>
                        <path d="M39.984518,15.785711 C39.5800904,14.1749309 38.6385711,12.410696 37.3337105,10.8187265 C36.0273649,9.22428187 34.4824218,7.95308231 32.9805451,7.23877509 C32.4380082,6.98235711 31.8281492,6.87988892 31.241061,6.93879575 C31.1999747,6.94226086 31.1618585,6.946716 31.1237423,6.95166615 C30.5198235,7.01601816 29.9530309,7.23630001 29.4773211,7.59172107 C28.1486997,8.58818708 26.8864105,10.1400604 25.9226155,11.9617171 C24.9598105,13.7808987 24.3870777,15.6966083 24.3098553,17.3554049 C24.2638189,18.3464257 24.6563661,19.3003204 25.4469057,20.026013 C25.8196523,20.3685636 26.2740764,20.6254766 26.7601815,20.7690311 C28.3927423,21.2511761 30.4643818,21.3996807 32.5944331,21.1863291 C32.6038384,21.1853391 32.6152237,21.184349 32.624629,21.183359 C34.7546803,20.9700074 36.7555326,20.41361 38.2598844,19.6171303 C38.7078733,19.3800179 39.1024006,19.0379622 39.4464363,18.5647275 C40.0305545,17.7613175 40.2265806,16.748516 39.984518,15.785711" id="Fill-8" fill="#FFB731"></path>
                        <path d="M13.7083579,35.5568243 C11.9847143,35.7949267 10.3947248,34.5910492 10.1561274,32.8679006 C9.91802495,31.144257 11.1219024,29.5542675 12.845051,29.3156701 C14.5686947,29.0775676 16.1591792,30.2814451 16.3972816,32.0045937 C16.635879,33.7282374 15.4315065,35.3187218 13.7083579,35.5568243 M16.1101726,24.5986683 L8.42258342,25.6619614 C6.51033892,25.9262996 5.17478736,27.6905345 5.43912558,29.602779 L6.50241867,37.2898732 C6.7667569,39.2026127 8.53148681,40.5381643 10.4432363,40.273826 L18.1308255,39.2105329 C20.042575,38.9461947 21.3786216,37.1819598 21.1142833,35.2697153 L20.0509903,27.5821261 C19.786652,25.6698816 18.0219221,24.33433 16.1101726,24.5986683" id="Fill-10" fill="#FFB731"></path>
                    </g>
                </g>
            </g>
        </g>
    </g>
</svg>