<?xml version="1.0" encoding="UTF-8"?>
<svg width="44px" height="51px" viewBox="0 0 44 51" version="1.1" xmlns="http://www.w3.org/2000/svg" xmlns:xlink="http://www.w3.org/1999/xlink">
    <!-- Generator: Sketch 46.2 (44496) - http://www.bohemiancoding.com/sketch -->
    <title>Icon</title>
    <desc>Created with Sketch.</desc>
    <defs>
        <filter x="-2.4%" y="-2.0%" width="109.5%" height="106.0%" filterUnits="objectBoundingBox" id="filter-1">
            <feOffset dx="2" dy="1" in="SourceAlpha" result="shadowOffsetOuter1"></feOffset>
            <feColorMatrix values="0 0 0 0 0.688058036   0 0 0 0 0.688058036   0 0 0 0 0.688058036  0 0 0 0.5 0" type="matrix" in="shadowOffsetOuter1" result="shadowMatrixOuter1"></feColorMatrix>
            <feMerge>
                <feMergeNode in="shadowMatrixOuter1"></feMergeNode>
                <feMergeNode in="SourceGraphic"></feMergeNode>
            </feMerge>
        </filter>
    </defs>
    <g id="Page-1" stroke="none" stroke-width="1" fill="none" fill-rule="evenodd">
        <g id="Petcube-Bites-UA-LP-—-1280" transform="translate(-222.000000, -1219.000000)">
            <g id="Group-9" transform="translate(0.000000, 754.000000)">
                <g id="Switcher-Copy" transform="translate(194.000000, 264.000000)">
                    <g id="Icon" filter="url(#filter-1)" transform="translate(28.000000, 201.000000)">
                        <path d="M40.4539135,9.3292464 C39.1818403,6.96843994 37.3558281,4.67670607 36.1974623,3.54541575 C35.4356452,2.80158511 34.7497793,2.33767382 34.1576452,2.05485123 C33.4743037,1.72860123 32.8163159,2.57029478 33.2202184,3.25981091 C34.6347549,5.67444801 35.6057671,8.51259317 36.4430964,11.2863835 C36.8697184,12.6978351 37.2804257,13.9032787 37.6774135,15.0685609 C37.8215232,15.4909803 37.961572,15.9022706 38.0966818,16.3072706 C38.2134623,16.6569883 38.527694,16.8807787 38.8644257,16.8476335 C40.0388159,16.7322303 41.0036818,16.3152545 41.700633,14.9423916 C42.2486452,13.8626335 41.7945842,11.8165851 40.4539135,9.3292464 M24.0000147,23.7600612 C24.0000147,23.3957651 23.9411273,23.3695193 23.7218145,23.272156 C23.0969217,22.9937331 21.8689759,22.9615609 21.0003006,22.9615609 C20.1310535,22.9615609 18.9036794,22.9937331 18.2783293,23.272156 C18.0590165,23.3697612 18.0000147,23.3957651 18.0000147,23.7600612 C18.0000147,24.1677777 18.3882143,24.9909513 19.1300816,25.7745749 C19.8594853,26.5456199 20.6375997,26.9615609 21.0003006,26.9615609 C21.362544,26.9615609 22.1410015,26.5456199 22.8704052,25.7745749 C23.6119294,24.9904675 24.0000147,24.1677777 24.0000147,23.7600612 M25.9317224,16.6087818 C24.8504531,16.6087818 23.973228,15.7270749 23.973228,14.63957 C23.973228,13.5517134 24.8504531,12.6698893 25.9317224,12.6698893 C27.0119291,12.6698893 27.8892723,13.5517134 27.8892723,14.63957 C27.8892723,15.7270749 27.0119291,16.6087818 25.9317224,16.6087818 M16.094025,16.5941238 C15.0230287,16.5941238 14.1512354,15.7192182 14.1512354,14.63957 C14.1512354,13.5599218 15.0230287,12.6854853 16.094025,12.6854853 C17.1664383,12.6854853 18.0377594,13.5599218 18.0377594,14.63957 C18.0377594,15.7187492 17.1664383,16.5941238 16.094025,16.5941238 M33.5262317,12.0395961 C34.0026892,13.4614202 34.475014,14.7101629 34.8919586,15.8117394 C36.0991025,19.0030749 36.9713682,21.3084821 36.9713682,25.0678436 C36.9713682,29.4620717 35.2347483,32.4413941 31.6618479,34.1754919 C29.5597667,35.1958046 26.827132,35.7841173 23.355073,35.9603648 C22.8908959,35.9839349 22.5004014,35.6188925 22.5004014,35.1574593 L22.5004014,30.4965733 C22.5004014,30.1885212 22.6789402,29.9095505 22.9572575,29.7735244 C23.9082833,29.3086906 24.6677815,28.6289121 25.0442243,28.2550749 C25.6558848,27.6482345 27.078763,26.0398436 27.078763,24.2222541 C27.078763,22.7353485 26.3329623,21.6049251 24.9786892,21.039127 C24.076549,20.662241 22.9293903,20.5082736 21.0202538,20.5082736 C19.1111173,20.5082736 17.9639586,20.662241 17.061228,21.039127 C15.7075453,21.6049251 14.9616265,22.7353485 14.9616265,24.2222541 C14.9616265,26.0398436 16.3846228,27.6476482 16.9962833,28.2550749 C17.3726081,28.6289121 18.1322243,29.3086906 19.083132,29.7735244 C19.3615675,29.9095505 19.5401062,30.1885212 19.5401062,30.4965733 L19.5401062,35.1574593 C19.5401062,35.6188925 19.1496117,35.9840521 18.6855527,35.9604821 C15.2133756,35.7845863 12.4807409,35.1961564 10.3786597,34.1754919 C6.80575935,32.4413941 5.0686671,29.4620717 5.0686671,25.0678436 C5.0686671,21.3084821 5.94093278,19.0030749 7.14843094,15.8117394 C7.56502134,14.7101629 8.03734607,13.4614202 8.51380363,12.0395961 C11.1304826,4.2314658 13.8984236,0 21.0202538,0 C28.1414937,0 30.910025,4.2314658 33.5262317,12.0395961 Z M8.81503692,3.25988349 C7.38303692,5.67452059 6.40014803,8.51254478 5.55248137,11.2863351 C5.12103692,12.6977867 4.7048147,13.9032303 4.3028147,15.0685125 C4.08759248,15.6922222 3.88059248,16.2918593 3.68570359,16.8825448 C2.2308147,16.8409319 1.04770359,16.5342787 0.229925812,14.9423432 C-0.324740855,13.8621012 0.134925812,11.8165367 1.49214803,9.32919801 C2.78025915,6.96887543 4.6288147,4.67665769 5.80114803,3.54536736 C6.57225915,2.80165769 7.26659248,2.33762543 7.86603692,2.05492382 C8.55792581,1.72867382 9.22392581,2.57036736 8.81503692,3.25988349 Z" id="Fill-9" fill="#FEFEFE"></path>
                        <path d="M21.4191511,49.5 C21.242012,49.5 21.0648729,49.4738817 20.8936815,49.4219036 C16.4215009,48.0655611 13.0325841,44.2142725 12.2598956,39.6107245 C12.0943934,38.6244346 12.7595055,37.6911572 13.7455367,37.525655 C14.7310508,37.3586011 15.6648454,38.0255234 15.8303476,39.0110375 C16.3465077,42.0873102 18.5140698,44.689057 21.4191511,45.779303 C24.3242325,44.689057 26.4917945,42.0873102 27.0079546,39.0112961 C27.1731982,38.0250062 28.1095788,37.3586011 29.0925069,37.525655 C30.0785382,37.6911572 30.7436503,38.6244346 30.5781481,39.6104659 C29.8057181,44.2142725 26.4168013,48.0653025 21.9446207,49.4219036 C21.7734293,49.4738817 21.5962902,49.5 21.4191511,49.5" id="Fill-1" fill="#FFB731" transform="translate(21.419022, 43.500000) rotate(-360.000000) translate(-21.419022, -43.500000) "></path>
                    </g>
                </g>
            </g>
        </g>
    </g>
</svg>