<?xml version="1.0" encoding="UTF-8"?>
<svg width="38px" height="36px" viewBox="0 0 38 36" version="1.1" xmlns="http://www.w3.org/2000/svg" xmlns:xlink="http://www.w3.org/1999/xlink">
    <!-- Generator: Sketch 46.2 (44496) - http://www.bohemiancoding.com/sketch -->
    <title>Page 1</title>
    <desc>Created with Sketch.</desc>
    <defs>
        <polygon id="path-1" points="0 29.9510661 0 0.154041322 30.9811488 0.154041322 30.9811488 29.9510661"></polygon>
        <polygon id="path-3" points="20.0018182 0.150743802 20.0018182 18.8429752 10.1311298 18.8429752 0.260441322 18.8429752 0.260441322 0.150743802"></polygon>
    </defs>
    <g id="Help-page-(Web-+-Mobile)" stroke="none" stroke-width="1" fill="none" fill-rule="evenodd">
        <g id="Help-page" transform="translate(-776.000000, -1655.000000)">
            <g id="contact" transform="translate(156.000000, 1490.000000)">
                <g transform="translate(0.000000, 78.000000)" id="Group-11">
                    <g transform="translate(580.000000, 87.000000)">
                        <g id="Page-1" transform="translate(40.000000, 0.000000)">
                            <g id="Group-3" transform="translate(0.000000, 0.160165)">
                                <mask id="mask-2" fill="white">
                                    <use xlink:href="#path-1"></use>
                                </mask>
                                <g id="Clip-2"></g>
                                <path d="M4.59438843,25.510405 C5.72528099,21.659843 4.9178595,18.8808182 4.69802479,18.246124 C4.65719835,18.1110826 4.59784298,17.9763554 4.51587603,17.853876 C3.60230579,16.4280909 3.14033884,14.8892479 3.14033884,13.281314 C3.14033884,7.7728843 8.6804876,3.29453719 15.4887686,3.29453719 C19.9953802,3.29453719 23.9429835,5.25420661 26.1005041,8.17486777 C27.2059587,9.6697438 27.8406529,11.4158595 27.8406529,13.281314 C27.8406529,14.1229669 27.7115785,14.9391818 27.4666198,15.7214793 C27.0866198,16.9431322 26.4274298,18.0765372 25.5449504,19.0723884 C24.3421405,20.4353636 22.7244711,21.5436446 20.8464545,22.2788347 C19.7190165,22.7181901 18.4976777,23.0262727 17.2132149,23.1707355 C16.6510661,23.2335455 16.0732149,23.2677769 15.4887686,23.2677769 C14.053562,23.2677769 12.6403388,23.0670992 11.2930661,22.6713967 C10.8003223,22.5269339 10.2849669,22.6368512 9.90182645,22.9286033 C9.32114876,23.3151983 8.40066942,23.7894132 7.37090083,24.275876 C6.47554545,24.6967025 5.50230579,25.124124 4.59438843,25.510405 M28.3462727,5.96395868 C25.5606529,2.46199174 20.8373471,0.154041322 15.4887686,0.154041322 C6.94661983,0.154041322 -0.000157024793,6.04247107 -0.000157024793,13.281314 C-0.000157024793,15.4039752 0.609413223,17.5084215 1.76480165,19.3770165 C1.96610744,20.0176777 2.76976033,23.2269504 0.313892562,27.5859587 C0.106933884,27.9533967 0.0566859504,28.3933802 0.176024793,28.7985041 C0.295363636,29.2067686 0.574553719,29.5459421 0.951413223,29.7434793 C1.17752893,29.8659587 1.33800826,29.9510661 1.59207438,29.9510661 C1.80908264,29.9510661 2.09141322,29.8910826 2.53736364,29.7375124 C3.21571074,29.5051157 4.28033884,29.0591653 6.07042149,28.2957107 C8.31901653,27.3350331 10.0086033,26.5216446 11.1077769,25.8743884 C12.5307355,26.2295785 14.0001736,26.4082727 15.4887686,26.4082727 C16.0889174,26.4082727 16.6790165,26.3803223 17.2600083,26.3203388 C18.3249504,26.220157 19.3581736,26.0254463 20.3471157,25.7459421 C24.3104215,24.6342066 27.5702562,22.2034628 29.3951983,19.0657934 C29.9322231,18.1428017 30.343314,17.1598264 30.6105702,16.1328843 C30.8552149,15.2158595 30.9811488,14.2611488 30.9811488,13.281314 C30.9811488,10.5773471 30.0107355,8.05521488 28.3462727,5.96395868" id="Fill-1" fill="#999999" mask="url(#mask-2)"></path>
                            </g>
                            <g id="Group-6" transform="translate(17.900826, 17.118843)">
                                <mask id="mask-4" fill="white">
                                    <use xlink:href="#path-3"></use>
                                </mask>
                                <g id="Clip-5"></g>
                                <path d="M18.8336479,11.7894215 C19.5996149,10.5269421 20.0019124,9.11057851 20.0019124,7.6753719 C20.0019124,4.51289256 18.0673669,1.73041322 15.1592678,0.150743802 C15.002243,1.22793388 14.6881934,2.26429752 14.2391025,3.24413223 C15.8407554,4.30247934 16.8614165,5.89785124 16.8614165,7.6753719 C16.8614165,8.5892562 16.5976149,9.46231405 16.079119,10.272562 C15.9977802,10.4013223 15.9349702,10.5363636 15.8941438,10.677686 C15.749681,11.1142149 15.3725074,12.521157 15.6994331,14.471405 C14.8134992,14.072562 13.9592843,13.661157 13.4853835,13.3533884 C13.0987884,13.0581818 12.5840612,12.951405 12.0941438,13.0958678 C11.2870364,13.331405 10.4453835,13.4507438 9.5880281,13.4507438 C7.24521818,13.4507438 5.15647438,12.5682645 3.82521818,11.1958678 C2.68521818,11.4565289 1.4915157,11.6104132 0.260441322,11.6418182 C1.96604463,14.5719008 5.50820992,16.5912397 9.5880281,16.5912397 C10.5019124,16.5912397 11.4063752,16.4907438 12.2825736,16.2897521 C13.0017471,16.694876 14.0283752,17.1816529 15.3473835,17.7438017 C17.1911686,18.5320661 17.9197636,18.8429752 18.4219289,18.8429752 C18.6640612,18.8429752 18.8553174,18.7707438 19.0943091,18.645124 C19.4680281,18.4472727 19.7472182,18.1049587 19.8668711,17.6998347 C19.9862099,17.2915702 19.935962,16.8550413 19.7286893,16.4844628 C18.3405901,14.0191736 18.7174496,12.2039669 18.8336479,11.7894215" id="Fill-4" fill="#999999" mask="url(#mask-4)"></path>
                            </g>
                            <path d="M11.6433256,13.6465223 C11.6433256,14.5569521 10.904995,15.2952826 9.99456529,15.2952826 C9.08413554,15.2952826 8.34580496,14.5569521 8.34580496,13.6465223 C8.34580496,12.7360926 9.08413554,11.997762 9.99456529,11.997762 C10.904995,11.997762 11.6433256,12.7360926 11.6433256,13.6465223" id="Fill-7" fill="#999999"></path>
                            <path d="M17.1391934,13.6465223 C17.1391934,14.5569521 16.4008628,15.2952826 15.4904331,15.2952826 C14.5800033,15.2952826 13.8416727,14.5569521 13.8416727,13.6465223 C13.8416727,12.7360926 14.5800033,11.997762 15.4904331,11.997762 C16.4008628,11.997762 17.1391934,12.7360926 17.1391934,13.6465223" id="Fill-9" fill="#999999"></path>
                            <path d="M22.6350612,13.6465223 C22.6350612,14.5569521 21.8967306,15.2952826 20.9863008,15.2952826 C20.0758711,15.2952826 19.3375405,14.5569521 19.3375405,13.6465223 C19.3375405,12.7360926 20.0758711,11.997762 20.9863008,11.997762 C21.8967306,11.997762 22.6350612,12.7360926 22.6350612,13.6465223" id="Fill-11" fill="#999999"></path>
                        </g>
                    </g>
                </g>
            </g>
        </g>
    </g>
</svg>