<?xml version="1.0" encoding="UTF-8"?>
<svg width="31px" height="33px" viewBox="0 0 31 33" version="1.1" xmlns="http://www.w3.org/2000/svg" xmlns:xlink="http://www.w3.org/1999/xlink">
    <!-- Generator: Sketch 46.2 (44496) - http://www.bohemiancoding.com/sketch -->
    <title>Page 1</title>
    <desc>Created with Sketch.</desc>
    <defs></defs>
    <g id="Help-page-(Web-+-Mobile)" stroke="none" stroke-width="1" fill="none" fill-rule="evenodd">
        <g id="Help-page" transform="translate(-566.000000, -1657.000000)" fill="#999999">
            <g id="contact" transform="translate(156.000000, 1490.000000)">
                <g transform="translate(0.000000, 78.000000)" id="Group-10">
                    <g transform="translate(362.000000, 88.000000)">
                        <g id="Page-1" transform="translate(63.500000, 17.500000) rotate(5.000000) translate(-63.500000, -17.500000) translate(48.000000, 2.000000)">
                            <path d="M16.769446,25.9738243 C15.9826805,25.5135397 15.1798586,24.9856491 14.3691493,24.3901524 C12.988859,23.3802869 11.5865967,22.1732371 10.2040529,20.790975 C8.82376254,19.4106847 7.62065643,18.0123661 6.60910082,16.6340476 C6.01332245,15.8233383 5.48543182,15.0205164 5.02542895,14.2337509 C2.60344198,10.0748517 2.10738255,6.34806784 3.97978861,4.2486181 L5.06148551,3.1669212 L7.600938,5.70665538 L10.4432093,8.54892666 L10.5767312,8.68244862 L10.4713785,8.78808308 L8.93108716,10.3280927 C8.38235133,10.8768285 8.19249099,11.6909181 8.44516863,12.4244438 C8.64178957,12.995715 8.87136847,13.5588171 9.13277856,14.1103699 C9.91531866,15.7534787 10.9851845,17.2934883 12.3435028,18.6518067 C13.703793,20.0120969 15.2457745,21.0839346 16.8947989,21.8645028 C17.4455066,22.1270397 18.0080453,22.3569003 18.5801615,22.5535212 C19.3134056,22.8061988 20.1272135,22.6160568 20.6753859,22.0678844 L22.2170857,20.5259029 L22.3187764,20.4244938 L22.4461012,20.5518186 L25.2886542,23.3943715 L27.8320503,25.9380494 C27.5354288,26.2386147 27.2306381,26.5434053 26.9238756,26.8501678 C24.8624543,28.9118708 21.0441206,28.463699 16.769446,25.9738243 M30.4731936,27.2763676 C31.192353,26.5056586 31.1746064,25.2966369 30.4236158,24.5456463 L29.8160064,23.9380369 L28.646985,22.7687338 L26.3083788,20.4304094 L23.7128697,17.8349002 C22.9430057,17.0650362 21.6942655,17.0650362 20.9244015,17.8349002 L19.3903074,19.3695577 C19.1708694,19.588714 18.8407265,19.6473059 18.5556543,19.5247699 C17.0218419,18.8661742 15.5854949,17.9098302 14.3353463,16.6599633 C13.0874512,15.4117864 12.1316705,13.9793831 11.4727932,12.4497961 C11.3499755,12.1647239 11.4088491,11.8340176 11.6282871,11.6145796 L13.1660432,10.0768235 C13.9361889,9.30667787 13.9361889,8.05821937 13.1660432,7.28807371 L10.5649002,4.686649 L8.22629402,2.34832453 L7.05699094,1.17902145 L6.45557873,0.577609243 C5.68543307,-0.192536414 4.43697457,-0.192536414 3.66682891,0.577609243 L1.92005743,2.32438072 C0.494133029,3.88608062 -0.121645467,5.90383971 0.0197638673,8.20836115 C0.167088732,10.6542919 1.16709498,13.4190979 2.96175408,16.2971441 C3.44570077,17.0760222 3.98964783,17.8627877 4.58936989,18.6537785 C5.628813,20.0242096 6.83783464,21.4084436 8.21249112,22.7828184 C9.58883774,24.1594467 10.9753253,25.3701585 12.3474465,26.4121369 C13.1381557,27.0115772 13.926893,27.5532708 14.7037993,28.039471 C17.584099,29.8318765 20.3508768,30.829911 22.7968076,30.9775175 C25.2210481,31.1225888 27.3264134,30.4315986 28.9157191,28.8422929 L30.4236158,27.3341145 C30.4416441,27.3163679 30.4596724,27.2983396 30.4731936,27.2763676" id="Fill-1"></path>
                        </g>
                    </g>
                </g>
            </g>
        </g>
    </g>
</svg>