<?xml version="1.0" encoding="UTF-8"?>
<svg width="34px" height="25px" viewBox="0 0 34 25" version="1.1" xmlns="http://www.w3.org/2000/svg" xmlns:xlink="http://www.w3.org/1999/xlink">
    <!-- Generator: Sketch 46.2 (44496) - http://www.bohemiancoding.com/sketch -->
    <title>Page 1</title>
    <desc>Created with Sketch.</desc>
    <defs>
        <polygon id="path-1" points="34 12.5 34 25 0 25 0 12.5 0 0 34 0"></polygon>
    </defs>
    <g id="Help-page-(Web-+-Mobile)" stroke="none" stroke-width="1" fill="none" fill-rule="evenodd">
        <g id="Help-page" transform="translate(-322.000000, -1661.000000)">
            <g id="contact" transform="translate(156.000000, 1490.000000)">
                <g transform="translate(0.000000, 78.000000)" id="Group-4">
                    <g transform="translate(88.000000, 93.000000)">
                        <g id="Page-1" transform="translate(78.000000, 0.000000)">
                            <mask id="mask-2" fill="white">
                                <use xlink:href="#path-1"></use>
                            </mask>
                            <g id="Clip-2"></g>
                            <path d="M31.1666667,21.6599866 C31.1666667,21.9661545 30.9116667,22.2166555 30.6,22.2166555 L3.4,22.2166555 C3.08833333,22.2166555 2.83333333,21.9661545 2.83333333,21.6599866 L2.83333333,5.46927188 L16.1018333,16.1433979 C16.3625,16.3521487 16.6826667,16.4579158 17,16.4579158 C17.3173333,16.4579158 17.6375,16.3521487 17.8981667,16.1433979 L31.1666667,5.46927188 L31.1666667,21.6599866 Z M30.0333333,2.78334447 L17,13.2682031 L3.96666667,2.78334447 L30.0333333,2.78334447 Z M33.9971667,3.19527945 C33.9348333,1.52777778 32.6173333,0.166722334 30.9485,0 L3.0515,0 C1.38266667,0.166722334 0.0651666667,1.52777778 0.00283333333,3.19527945 C0,3.23702961 0,3.28156313 0,3.32331329 L0,21.6599866 C0,23.499499 1.52433333,25 3.4,25 L30.6,25 C32.4756667,25 34,23.499499 34,21.6599866 L34,3.32331329 C34,3.28156313 34,3.23702961 33.9971667,3.19527945 L33.9971667,3.19527945 Z" id="Fill-1" fill="#999999" mask="url(#mask-2)"></path>
                        </g>
                    </g>
                </g>
            </g>
        </g>
    </g>
</svg>