<?xml version="1.0" encoding="UTF-8"?>
<svg width="63px" height="63px" viewBox="0 0 63 63" version="1.1" xmlns="http://www.w3.org/2000/svg" xmlns:xlink="http://www.w3.org/1999/xlink">
    <!-- Generator: Sketch 45 (43475) - http://www.bohemiancoding.com/sketch -->
    <title>icon</title>
    <desc>Created with Sketch.</desc>
    <defs></defs>
    <g id="Page-1" stroke="none" stroke-width="1" fill="none" fill-rule="evenodd">
        <g id="Travel-LP-—-1280" transform="translate(-804.000000, -3531.000000)">
            <g id="5-app" transform="translate(-13.000000, 3175.000000)">
                <g id="icon" transform="translate(817.000000, 356.000000)">
                    <rect id="Rectangle" fill="#FEECA0" x="0" y="0" width="63" height="63" rx="14"></rect>
                    <polygon id="Path-2" fill="#FFFFFF" points="46.5544563 39.6350792 31.8579545 47.7869318 17.0860862 39.6350792 17.0860862 23.3649208 31.8579545 15.2130682 46.6298229 23.3649208 46.6298229 39.6350792"></polygon>
                    <path d="M31.8579545,12.1704545 L14.3181818,21.8352273 L14.3181818,41.1647727 L31.8579545,50.8295455 L49.3977273,41.1647727 L49.3977273,21.8352273 L31.8579545,12.1704545 L31.8579545,12.1704545 Z M45.7469562,39.1880969 L31.8579545,46.8920455 L17.8977273,39.1880969 L17.8977273,23.8119031 L31.8579545,16.1079545 L45.8181818,23.8119031 L45.8181818,39.1880969 L45.7469562,39.1880969 Z M23.4054545,33.3500225 L24.6081818,32.8396715 L22.47,28.0870275 L20.0311364,30.7663704 L21.0334091,31.5956908 L22.1025,30.447401 L23.4054545,33.3500225 Z M29.6195455,36.4121287 L30.8556818,35.9017777 L28.6840909,31.1491337 L26.2786364,33.8284766 L27.2809091,34.657797 L28.3165909,33.5095072 L29.6195455,36.4121287 Z" id="Petcube" fill="#000000"></path>
                </g>
            </g>
        </g>
    </g>
</svg>