<?xml version="1.0" encoding="UTF-8"?>
<svg width="19px" height="18px" viewBox="0 0 19 18" version="1.1" xmlns="http://www.w3.org/2000/svg" xmlns:xlink="http://www.w3.org/1999/xlink">
    <!-- Generator: Sketch 42 (36781) - http://www.bohemiancoding.com/sketch -->
    <title>Star Copy 3</title>
    <desc>Created with Sketch.</desc>
    <defs></defs>
    <g id="Reviews" stroke="none" stroke-width="1" fill="none" fill-rule="evenodd">
        <g id="1280" transform="translate(-340.000000, -309.000000)" fill="#D4D4D4">
            <g id="rating" transform="translate(264.000000, 272.000000)">
                <g id="stars" transform="translate(1.000000, 37.000000)">
                    <path d="M85.8231256,15.7889872 C85.2074428,15.4636985 84.2030147,15.466979 83.5935411,15.7889872 L79.896291,17.742385 C79.2806082,18.0676737 78.878006,17.7659015 78.9944051,17.0838774 L79.700517,12.9465143 C79.818102,12.2575419 79.5046121,11.2985509 79.0115375,10.8155387 L76.0203993,7.88544186 C75.5223015,7.39750892 75.6834768,6.91946007 76.3648891,6.81995408 L80.4985404,6.21632094 C81.1868946,6.11580122 81.9975753,5.51983169 82.3023121,4.89930561 L84.1509372,1.13500829 C84.4587786,0.508160519 84.9609926,0.514482209 85.2657295,1.13500829 L87.1143545,4.89930561 C87.4221959,5.52615338 88.236714,6.11681495 88.9181263,6.21632094 L93.0517776,6.81995408 C93.7401318,6.9204738 93.8893419,7.40242967 93.3962673,7.88544186 L90.4051292,10.8155387 C89.9070313,11.3034716 89.5997505,12.2644901 89.7161496,12.9465143 L90.4222616,17.0838774 C90.5398465,17.7728498 90.1298494,18.0643932 89.5203757,17.742385 L85.8231256,15.7889872 Z" id="Star-Copy-3"></path>
                </g>
            </g>
        </g>
    </g>
</svg>