<?xml version="1.0" encoding="UTF-8"?>
<svg width="19px" height="18px" viewBox="0 0 19 18" version="1.1" xmlns="http://www.w3.org/2000/svg" xmlns:xlink="http://www.w3.org/1999/xlink">
    <!-- Generator: Sketch 42 (36781) - http://www.bohemiancoding.com/sketch -->
    <title>Star</title>
    <desc>Created with Sketch.</desc>
    <defs></defs>
    <g id="Reviews" stroke="none" stroke-width="1" fill="none" fill-rule="evenodd">
        <g id="1280" transform="translate(-265.000000, -309.000000)" fill="#FFB731">
            <g id="rating" transform="translate(264.000000, 272.000000)">
                <g id="stars" transform="translate(1.000000, 37.000000)">
                    <path d="M10.1981256,15.7889872 C9.58244283,15.4636985 8.57801475,15.466979 7.96854107,15.7889872 L4.27129096,17.742385 C3.6556082,18.0676737 3.25300597,17.7659015 3.36940508,17.0838774 L4.07551702,12.9465143 C4.19310197,12.2575419 3.87961207,11.2985509 3.38653751,10.8155387 L0.395399343,7.88544186 C-0.102698476,7.39750892 0.0584768159,6.91946007 0.739889096,6.81995408 L4.87354038,6.21632094 C5.56189464,6.11580122 6.37257531,5.51983169 6.67731215,4.89930561 L8.5259372,1.13500829 C8.83377859,0.508160519 9.33599263,0.514482209 9.64072946,1.13500829 L11.4893545,4.89930561 C11.7971959,5.52615338 12.611714,6.11681495 13.2931263,6.21632094 L17.4267776,6.81995408 C18.1151318,6.9204738 18.2643419,7.40242967 17.7712673,7.88544186 L14.7801292,10.8155387 C14.2820313,11.3034716 13.9747505,12.2644901 14.0911496,12.9465143 L14.7972616,17.0838774 C14.9148465,17.7728498 14.5048494,18.0643932 13.8953757,17.742385 L10.1981256,15.7889872 Z" id="Star"></path>
                </g>
            </g>
        </g>
    </g>
</svg>