<?xml version="1.0" encoding="UTF-8"?>
<svg width="19px" height="18px" viewBox="0 0 19 18" version="1.1" xmlns="http://www.w3.org/2000/svg" xmlns:xlink="http://www.w3.org/1999/xlink">
    <!-- Generator: Sketch 42 (36781) - http://www.bohemiancoding.com/sketch -->
    <title>Rectangle</title>
    <desc>Created with Sketch.</desc>
    <defs>
        <path d="M11.0314589,15.7889872 C10.4157762,15.4636985 9.41134808,15.466979 8.80187441,15.7889872 L5.1046243,17.742385 C4.48894153,18.0676737 4.0863393,17.7659015 4.20273842,17.0838774 L4.90885035,12.9465143 C5.0264353,12.2575419 4.71294541,11.2985509 4.21987085,10.8155387 L1.22873268,7.88544186 C0.730634858,7.39750892 0.891810149,6.91946007 1.57322243,6.81995408 L5.70687372,6.21632094 C6.39522797,6.11580122 7.20590865,5.51983169 7.51064548,4.89930561 L9.35927054,1.13500829 C9.66711192,0.508160519 10.169326,0.514482209 10.4740628,1.13500829 L12.3226879,4.89930561 C12.6305292,5.52615338 13.4450473,6.11681495 14.1264596,6.21632094 L18.2601109,6.81995408 C18.9484652,6.9204738 19.0976752,7.40242967 18.6046007,7.88544186 L15.6134625,10.8155387 C15.1153647,11.3034716 14.8080839,12.2644901 14.924483,12.9465143 L15.6305949,17.0838774 C15.7481799,17.7728498 15.3381827,18.0643932 14.728709,17.742385 L11.0314589,15.7889872 Z" id="path-1"></path>
    </defs>
    <g id="Reviews" stroke="none" stroke-width="1" fill="none" fill-rule="evenodd">
        <g id="1280" transform="translate(-365.000000, -309.000000)">
            <g id="rating" transform="translate(264.000000, 272.000000)">
                <g id="stars" transform="translate(1.000000, 37.000000)">
                    <g id="Rectangle" transform="translate(100.000000, 0.000000)">
                        <mask id="mask-2" fill="white">
                            <use xlink:href="#path-1"></use>
                        </mask>
                        <use id="Mask" fill="#FFB731" xlink:href="#path-1"></use>
                        <rect fill="#D4D4D4" mask="url(#mask-2)" x="10" y="-8" width="20" height="35"></rect>
                    </g>
                </g>
            </g>
        </g>
    </g>
</svg>