<svg viewBox="0 0 339 107" xmlns="http://www.w3.org/2000/svg" xmlns:xlink="http://www.w3.org/1999/xlink"><defs><path id="a" d="M0 0h339v107H0V0z"/></defs><g fill="none" fill-rule="evenodd"><path d="M46.5 0L0 26.75v53.5L46.5 107 93 80.25v-53.5L46.5 0z" fill="#221F20"/><path d="M9 75.5L46 97l37-21.5v-43L46 11 9 32.5v43z" fill="#FEFEFE"/><path d="M40.8 68l-3.44-8.24-2.7 3.26L32 60.64 38.36 53 44 66.55 40.8 68zm-17-9l-3.44-8.24-2.7 3.26-2.66-2.4L21.36 44 27 57.55 23.8 59zm111.05-8c4.48 0 7.15-2.84 7.15-7.6 0-4.7-2.6-7.4-7.1-7.4H128v15h6.85zm-14.93 23V36.1H116V29h19.7c4.1 0 7.67 1.36 10.27 3.95 2.63 2.6 4.03 6.24 4.03 10.48 0 8.6-5.9 14.62-14.3 14.62h-7.92V74h-7.86zM174 52c-.48-3.72-3-6-6.78-6-4.07 0-7.14 2.27-8.22 6h15zm-5.47 22C158.37 74 151 66.85 151 57c0-10 6.83-17 16.6-17 8.6 0 14.4 6.15 14.4 15.3 0 .87-.13 2.05-.2 2.6l-.1.8h-22.6c.7 5.12 4.43 8.37 9.8 8.37 3.97 0 6.98-2.2 8.26-3.13l.4-.28.82-.58 3.43 5.85-.6.5c-.93.75-5.93 4.57-12.7 4.57zm31.44 0c-3.88 0-12.9-1.2-12.9-12.32V47.92H183V41.4h4.2V33h7.72v8.4h7.52v6.52h-7.52v13.1c0 4.93 3.12 5.97 5.73 5.97.73 0 1.22-.1 1.22-.1l1.12-.26v7.12l-.8.1c-.05 0-.95.13-2.24.13m22.42 0C212.3 74 205 66.85 205 57s7.36-17 17.5-17c1.6 0 3.3.18 5.07.68 1.37.4 2.2.9 3.3 1.66l-2.54 5.84c-2.8-1.34-4.27-1.3-5.83-1.3-5.6 0-9.7 4.22-9.7 10.06 0 6.88 5.2 10 10 10 5.33 0 8.86-3.9 8.9-3.93l.83-.92L236 67.9l-.4.5c-.2.2-4.7 5.6-13.22 5.6m27.42 0c-7.5 0-11-4.23-11-12.6V47.8H235V41l11.43.02V60.1c0 4.86 1.3 6.67 4.82 6.67 5.95 0 9.06-4.18 9.06-9.8V41h7.7v32.3h-7.45v-3.44C259 73.08 254.38 74 249.8 74m39.3-26c-5.07 0-8.1 3.76-8.1 10.06 0 4.8 2.47 9.94 7.9 9.94 4.85 0 8.1-4.02 8.1-10s-3.18-10-7.9-10m.93 27c-4.32 0-7.15-1.9-8.77-3.5v2.8h-7.43V35.57H270V29h11.57v15c1.62-1.58 4.47-3.4 8.94-3.4 8.7 0 14.5 6.9 14.5 17.2 0 10.12-6.15 17.2-14.96 17.2" fill="#221F20"/><mask id="b" fill="#fff"><use xlink:href="#a"/></mask><path d="M332 52c-.48-3.72-3-6-6.8-6-4.05 0-7.12 2.27-8.2 6h15zm-6.46 22C315.37 74 308 66.85 308 57c0-10 6.83-17 16.6-17 8.62 0 14.4 6.15 14.4 15.3 0 .87-.12 2.05-.2 2.6l-.1.8h-22.58c.7 5.12 4.44 8.37 9.8 8.37 3.97 0 6.98-2.2 8.26-3.13l.4-.28.82-.58 3.43 5.85-.6.5c-.93.75-5.93 4.57-12.7 4.57z" fill="#221F20" mask="url(#b)"/></g></svg>