<svg width="156" height="101" viewBox="0 0 156 101" xmlns="http://www.w3.org/2000/svg" xmlns:xlink="http://www.w3.org/1999/xlink"><defs><path id="a" d="M0 100.97h155.96V.3H0z"/></defs><g transform="translate(0 -1)" fill="none" fill-rule="evenodd"><circle fill="#FFF" cx="106" cy="51" r="50"/><path d="M136.34 74.33c-.2.2-.33.5-.33.77 0 .3.13.57.34.78.2.2.47.32.76.32.3 0 .57-.12.77-.32.2-.2.32-.5.32-.78s-.12-.56-.33-.77c-.4-.4-1.13-.4-1.53 0M131.46 79.7c-.45.4-.5 1.1-.08 1.54.2.23.5.35.8.35.27 0 .54-.1.74-.3.45-.4.48-1.1.07-1.53-.4-.45-1.1-.48-1.54-.08M77 77.13c-.16-1.08-.32-2.2-.98-3.05-.65-.85-1.7-1.3-2.7-1.7-.82-.36-1.67-.73-1.96-1.23-.3-.5-.17-1.4-.07-2.3.12-1.08.26-2.2-.15-3.2-.4-1-1.3-1.67-2.15-2.34-.7-.55-1.45-1.12-1.6-1.7-.14-.53.2-1.38.54-2.2.4-1.02.83-2.07.7-3.15-.15-1.06-.82-1.95-1.47-2.8-.54-.74-1.1-1.5-1.1-2.08 0-.6.56-1.34 1.1-2.06.65-.85 1.32-1.75 1.46-2.8.14-1.08-.28-2.13-.7-3.15-.33-.82-.67-1.68-.53-2.22.15-.53-.17-1.07-.7-1.2-.52-.15-1.07.16-1.2.7-.33 1.17.16 2.4.6 3.47.3.77.64 1.58.56 2.14-.07.54-.58 1.22-1.07 1.88-.72.94-1.52 2-1.52 3.25 0 1.26.8 2.32 1.5 3.26.5.66 1 1.34 1.08 1.87.08.57-.25 1.37-.56 2.15-.44 1.08-.93 2.3-.6 3.48.3 1.2 1.36 2.02 2.28 2.74.65.5 1.32 1.04 1.53 1.54.23.53.12 1.4.02 2.22-.14 1.15-.3 2.46.32 3.53.62 1.07 1.84 1.6 2.92 2.04.76.32 1.55.65 1.9 1.1.33.43.45 1.3.56 2.1.17 1.16.36 2.47 1.23 3.34.2.2.44.3.7.3.25 0 .5-.1.7-.3.4-.38.4-1 0-1.4-.4-.4-.53-1.32-.66-2.2M74.36 27.1l-.68.9-1.5-1.17.67-.9c.34-.42.86-.84 1.48-.36.22.17.35.4.36.65 0 .28-.1.58-.34.88zm2.44 3.28l-1.77-1.36.65-.85c.52-.67.8-1.42.78-2.1 0-.8-.36-1.46-1.02-1.97-.62-.47-1.33-.66-2.02-.52-.7.13-1.34.56-1.86 1.25l-1.85 2.4 6 4.6 1.1-1.45zM87.17 20.7l-1-1.35-3.2 2.33-.75-1.02 2.82-2.05-1-1.35-2.8 2.04-.72-1L83.7 16l-1-1.36-4.64 3.38 4.43 6.1M90.9 12.6l1.95 5.47 1.72-.6-1.95-5.5 2.08-.73-.58-1.63-5.87 2.1.58 1.62M103.9 15.87h.23c1.23-.07 2.12-.5 2.96-1.48l.17-.23-1.25-1.14-.2.2c-.53.56-.98.88-1.74.92-1.17.06-2.04-.82-2.1-2.06-.04-.6.13-1.17.48-1.6.34-.4.83-.65 1.4-.68.6-.04 1.14.17 1.77.7l.23.18 1.1-1.4-.22-.2c-.63-.53-1.5-1.07-2.98-1-1.08.06-2.05.52-2.72 1.3-.66.75-1 1.75-.94 2.8.06 1.05.5 2 1.24 2.7.7.63 1.6.97 2.57.97M114.54 16.96c.36.1.7.13 1.03.13 1.47 0 2.56-.93 3-2.62l1.06-4.1-1.76-.46-1.07 4.16c-.2.72-.66 1.5-1.8 1.22-1.18-.3-1.2-1.25-1-2l1.06-4.1-1.76-.46-1.07 4.16c-.27 1.03-.2 1.92.23 2.63.4.7 1.13 1.18 2.08 1.43M125 17.92l1.4.87c.63.4.84.77.62 1.13-.1.15-.2.24-.36.27-.22.06-.53-.03-.88-.25l-1.47-.9.7-1.13zm1.53-2.44l1.24.78c.3.18.74.55.47.98-.23.37-.64.4-1.2.03l-1.17-.72.66-1.07zm.23 6.5h.14c.66-.04 1.2-.37 1.58-.96.42-.68.43-1.36.03-2.06.6-.08 1.05-.4 1.37-.9.3-.48.38-.96.26-1.47-.14-.65-.6-1.22-1.34-1.68l-2.9-1.8-4 6.4 2.98 1.85c.66.4 1.3.62 1.88.62zM110.92 42.32c-1 0-1.84-.82-1.84-1.84 0-1 .83-1.84 1.84-1.84 1.02 0 1.84.83 1.84 1.84 0 1.02-.82 1.84-1.84 1.84m0-5.66c-2.1 0-3.82 1.7-3.82 3.82 0 2.1 1.72 3.83 3.82 3.83 2.1 0 3.83-1.7 3.83-3.82 0-2.1-1.72-3.82-3.83-3.82M90.8 87.05l-.65-3.54-1.62-.67-2.9 6.96 1.66.68 1.63-3.95.57 2.88.06.18.3.12 2.6-1.73-1.65 3.97 1.68.7 2.9-6.96-1.63-.68M101.72 90.97l.87-1.66.6 1.8-1.48-.13zm.33-4.22l-3.9 7.3 1.9.16.84-1.6 2.87.2.57 1.74 1.94.15-2.72-7.84-1.5-.1zM110.6 86.63l1.24 7.44 1.8-.3-1.24-7.43M121.53 89.64l-2.33-5.34-1.67.72 3 6.9 5.02-2.17-.68-1.56" fill="#020302"/><g transform="translate(0 .745)"><mask id="b" fill="#fff"><use xlink:href="#a"/></mask><path d="M105.62 99c-9.73 0-18.8-2.92-26.38-7.88l-.48-.3-.38-.27C70.68 85.3 64.6 77.9 60.98 69.2v-.02c-1.04-2.48-1.87-5.06-2.48-7.73l-.04-.2c-.17-.76-.33-1.52-.46-2.3l-.14-.83c-.1-.64-.2-1.28-.26-1.93l-.06-.43h.02c-.18-1.7-.3-3.4-.3-5.14 0-1.15.06-2.28.13-3.4v-.02c1.76-25.07 22.7-44.93 48.22-44.93 11.7 0 22.47 4.2 30.85 11.14l-1.77 5.1-11.77 5.72-.3-.2c-.05-.02-.1-.05-.15-.1l-.97-.6-.2-.12c-.2-.12-.43-.22-.65-.34l-.2-.1c-.34-.2-.7-.4-1.05-.56-.12-.06-.24-.1-.36-.17l-.55-.24-.12-.06c-.4-.17-.77-.35-1.16-.5l-.54-.2c-.17-.06-.33-.1-.5-.17-.4-.14-.8-.3-1.2-.42l-.7-.2-.24-.07-.57-.14-.76-.2-.32-.07c-.57-.12-1.14-.23-1.7-.32l-.3-.05-.3-.04c-.63-.1-1.27-.16-1.9-.2-.06-.02-.1-.03-.16-.03h-.33c-.63-.06-1.25-.08-1.87-.08h-.37c-1.52 0-3.03.1-4.53.34-.1 0-.17.02-.26.03-.64.1-1.27.22-1.9.36-.13.03-.27.05-.4.1-.7.15-1.4.33-2.1.55 0 0-.04 0-.05.02-.44.13-.87.28-1.3.44l-.23.1c-.4.13-.76.28-1.13.43l-.36.15-1 .46c-.13.06-.27.12-.4.2l-1 .5-.34.18-.4.22-.72.43-.14.08c-5.7 3.46-10.06 8.52-12.63 14.58l-.15.36c-.13.3-.25.6-.37.93-.1.25-.18.5-.27.76l-.2.6c-.12.34-.22.67-.32 1l-.08.3c-.02.04-.02.1-.03.13-.18.64-.33 1.28-.47 1.93-.13.65-.24 1.3-.33 1.96l-.04.3c-.07.56-.12 1.13-.17 1.7 0 .1 0 .2-.02.3-.04.7-.07 1.4-.07 2.1 0 3.98.75 7.77 2.1 11.27v.03c.27.68.55 1.35.86 2 0 .04.02.07.03.1.33.68.66 1.36 1.03 2l.3.53.6.97c.15.24.3.5.46.73l.18.25c.5.73 1.03 1.44 1.58 2.12l.1.13c.62.74 1.26 1.47 1.95 2.16 1.82 1.82 3.86 3.42 6.06 4.76v.32h.55c4.65 2.7 10.03 4.24 15.77 4.24 6.7 0 13.1-2.16 18.4-5.95l.02.02c.3-.2.56-.44.85-.65v-.02c1.22-.93 2.37-1.96 3.44-3.07.36-.37.7-.74 1.05-1.13l.14-.18c.37-.43.74-.88 1.1-1.33l.28-.4c.3-.4.6-.8.88-1.22l.28-.43c.08-.1.16-.23.23-.34l.87 1.78 18.26-8.76-6.14-12.8c3.34-6.2 3.53-13.6.45-19.95l-3.46-7.15.36-1.07c7.06 8.4 11.32 19.24 11.32 31.05 0 26.66-21.7 48.36-48.36 48.36zm.3-72.58l-2.53 7.28L98 36.3l-10.45-2.63c-1.36-.35-2.72.14-3.56 1.25-.83 1.12-.9 2.56-.2 3.77l5.7 9.78-.2 26.84c-2.44-1.62-4.63-3.6-6.5-5.85l-.06-.07c-.55-.68-1.07-1.38-1.57-2.1l-.1-.14-.45-.7-.54-.9-.3-.5c-.33-.6-.65-1.24-.95-1.87l-.04-.1c-.3-.62-.57-1.25-.8-1.9h-.02c-1.52-3.98-2.17-8.27-1.9-12.55 0-.1.02-.18.03-.27.05-.54.1-1.08.18-1.62 0-.1.02-.17.03-.26.1-.62.2-1.23.33-1.84.12-.6.27-1.2.43-1.8l.1-.4.3-.98.2-.53c.08-.27.18-.53.28-.8.1-.24.18-.48.28-.7.07-.2.15-.38.23-.56.13-.32.27-.63.42-.93l.14-.3.57-1.1.04-.08c1.6-2.9 3.66-5.53 6.1-7.75l.1-.1c.3-.25.6-.5.9-.77.1-.1.2-.17.3-.26l.73-.56.57-.42.5-.36c.28-.2.55-.37.83-.55l.3-.18c.33-.22.7-.43 1.05-.64.03 0 .06-.02.1-.04 2.03-1.15 4.22-2.07 6.5-2.72h.02l1.26-.33c.08 0 .15-.03.23-.04l1.07-.23.46-.08c.3-.05.58-.1.87-.13l.72-.1.64-.06.96-.08.45-.02 1.14-.03h.3c.72 0 1.43.02 2.14.08.04 0 .08 0 .12.02.28.02.56.06.84.1l1 .1.48.07c.3.04.62.1.93.17.3.06.6.1.9.17l.73.18.6.16.33.1c.6.16 1.18.35 1.76.56h.02c.17.07.34.12.5.2.55.2 1.08.42 1.6.65l.67.28c.45.2.88.44 1.3.67.3.16.6.3.87.47l.35.22-14.9 7.23 1.86-5.4-1.87-.65zm30.17 25.2l1.66-8.46 2.54-1.22 7.63 15.87-11.84-6.17zm-4.82 13.76l-.1.2-.75 1.2-.28.4c-.26.4-.53.78-.8 1.16l-.3.37c-.32.43-.66.85-1 1.25l-.15.17c-.64.73-1.3 1.42-2 2.07-.7.65-1.44 1.27-2.2 1.86h-.02c-.14.13-.3.22-.44.33V63l5.6-2.7 2.44 5.08zm-5.67-16.4l9.92-4.75-1.67 8.47 14.05 7.34-13.8 6.62L125.6 49zm14.64-28l3.72 7.67c2.6 5.33 2.64 11.48.24 16.82l-2.97-6.18-18.26 8.76 5 10.44-6.72 3.26v13.98c-4.62 2.87-10.02 4.5-15.63 4.5-5.2 0-10.08-1.36-14.33-3.72l.2-28.57-6-10.26c-.3-.52-.26-1.1.1-1.6.35-.46.9-.65 1.48-.5l11.16 2.8 4.23-2.05-1.02 2.94 1.87.64 1.67-4.82 18.3-8.88 13.4-6.5 3.54 1.23zm-3.02-3.7l.86-2.47.25-.72 2.9 1 .8.28-.15.4-.73 2.1-.1.27-.3.92-3.7-1.28.17-.5zm6.2.14l1.13-3.3-7.07-2.44C128.8 4.56 117.7.28 105.62.28c-27.76 0-50.34 22.6-50.34 50.35 0 1 .04 2 .1 3-1.3-.05-2.53-.26-3.78-.5-3.23-.6-6.58-1.2-11.78 1-5.2 2.2-7.08 5.02-8.9 7.77-1.72 2.58-3.35 5.03-7.94 6.97-4.6 1.95-7.48 1.4-10.53.85-3.24-.6-6.6-1.22-11.78.98-.56.23-.82.87-.58 1.43.16.42.57.67 1 .67.13 0 .28-.03.42-.1 4.6-1.94 7.48-1.4 10.53-.84 3.24.6 6.58 1.22 11.78-.98 5.2-2.2 7.08-5.03 8.9-7.78 1.73-2.58 3.35-5.03 7.94-6.97 4.6-1.94 7.48-1.4 10.54-.85 1.4.26 2.8.52 4.35.56.2 1.82.48 3.6.86 5.37-.5-.07-1-.16-1.5-.25-3.23-.6-6.57-1.22-11.77.98-5.2 2.2-7.08 5.04-8.9 7.78-1.72 2.6-3.35 5.04-7.94 6.98-4.6 1.95-7.5 1.4-10.55.85-3.23-.6-6.58-1.22-11.78.98-.55.24-.8.88-.58 1.44.17.42.57.67 1 .67.14 0 .3-.02.42-.08 4.6-1.95 7.5-1.4 10.54-.85 3.24.6 6.58 1.22 11.78-.98 5.2-2.2 7.08-5.04 8.9-7.78 1.72-2.6 3.35-5.04 7.94-6.98 4.6-1.95 7.48-1.4 10.53-.84.8.14 1.6.28 2.45.4.48 1.82 1.08 3.6 1.76 5.35l-.48-.1c-3.24-.6-6.6-1.2-11.78 1-5.2 2.2-7.08 5.03-8.9 7.77-1.73 2.6-3.35 5.03-7.94 6.97-4.6 1.94-7.48 1.4-10.54.84-3.23-.6-6.58-1.22-11.78.98-.55.24-.8.87-.58 1.43.18.42.58.67 1 .67.15 0 .3-.03.43-.1 4.6-1.93 7.48-1.4 10.53-.83 3.24.58 6.6 1.2 11.8-1 5.18-2.2 7.07-5.03 8.9-7.77 1.7-2.6 3.34-5.03 7.93-6.98 4.58-1.94 7.47-1.4 10.52-.84.62.12 1.24.23 1.88.33.86 1.9 1.82 3.75 2.9 5.52l-1-.18c-3.27-.6-6.66-1.22-11.85.98-5.2 2.2-7.1 5.04-8.9 7.78-1.73 2.6-3.35 5.03-7.95 6.97-4.6 1.95-7.48 1.42-10.53.85-3.24-.6-6.58-1.22-11.78.98-.57.24-.83.88-.6 1.43.2.42.6.67 1 .67.16 0 .3-.03.44-.1 4.6-1.93 7.48-1.4 10.53-.83 3.24.6 6.6 1.2 11.78-1 5.2-2.2 7.1-5.02 8.9-7.76 1.73-2.6 3.35-5.03 7.95-6.98 4.6-1.94 7.52-1.4 10.6-.84.98.17 1.96.35 3 .46 9.08 13.15 24.26 21.8 41.42 21.8 27.76 0 50.34-22.6 50.34-50.35 0-12.72-4.75-24.34-12.55-33.2z" fill="#020302" mask="url(#b)"/></g></g></svg>