<?xml version="1.0" encoding="UTF-8"?>
<svg width="22px" height="22px" viewBox="0 0 22 22" version="1.1" xmlns="http://www.w3.org/2000/svg" xmlns:xlink="http://www.w3.org/1999/xlink">
    <!-- Generator: Sketch 45 (43475) - http://www.bohemiancoding.com/sketch -->
    <title>1</title>
    <desc>Created with Sketch.</desc>
    <defs></defs>
    <g id="Page-1" stroke="none" stroke-width="1" fill="none" fill-rule="evenodd" fill-opacity="0.7">
        <g id="Why-Petcube-—-1280-actual" transform="translate(-150.000000, -4160.000000)" fill-rule="nonzero" fill="#000000">
            <g id="6" transform="translate(150.000000, 3779.000000)">
                <g id="icons" transform="translate(0.000000, 365.000000)">
                    <g id="icons-copy" transform="translate(0.000000, 16.000000)">
                        <g id="1">
                            <path d="M11,22 C4.92486775,22 0,17.0751322 0,11 C0,4.92486775 4.92486775,0 11,0 C17.0751322,0 22,4.92486775 22,11 C21.9938077,17.0725655 17.0725655,21.9938077 11,22 Z M10.9995829,2.24173759 C6.16123584,2.24326076 2.24021535,6.16675066 2.24173836,11.0050977 C2.24326137,15.8434447 6.16675115,19.7644653 11.0050982,19.7629425 C15.8434452,19.7614196 19.7644659,15.83793 19.7629432,10.9995829 C19.7568606,6.16312722 15.8360415,2.24477556 10.9995829,2.24173759 L10.9995829,2.24173759 Z M11,14.6666667 C8.97495592,14.6666667 7.33333333,13.0250441 7.33333333,11 C7.33333333,8.97495592 8.97495592,7.33333333 11,7.33333333 C13.0250441,7.33333333 14.6666667,8.97495592 14.6666667,11 C14.6666667,13.0250441 13.0250441,14.6666667 11,14.6666667 Z" id="Shape"></path>
                        </g>
                    </g>
                </g>
            </g>
        </g>
    </g>
</svg>