<?xml version="1.0" encoding="UTF-8"?>
<svg width="19px" height="15px" viewBox="0 0 19 15" version="1.1" xmlns="http://www.w3.org/2000/svg" xmlns:xlink="http://www.w3.org/1999/xlink">
    <!-- Generator: Sketch 45 (43475) - http://www.bohemiancoding.com/sketch -->
    <title>3</title>
    <desc>Created with Sketch.</desc>
    <defs></defs>
    <g id="Page-1" stroke="none" stroke-width="1" fill="none" fill-rule="evenodd" opacity="0.7">
        <g id="Why-Petcube-—-1280-actual" transform="translate(-984.000000, -4807.000000)" fill-rule="nonzero" fill="#000000">
            <g id="7" transform="translate(-21.000000, 4497.000000)">
                <g id="icons" transform="translate(240.000000, 302.000000)">
                    <g id="icons-copy" transform="translate(136.000000, 0.000000)">
                        <g id="3" transform="translate(629.000000, 8.000000)">
                            <g id="Page-1">
                                <g id="Combined-Shape">
                                    <path d="M11.0000206,3 L11.0000206,5.81934766 L18.4877775,12.371135 C19.1112324,12.916658 19.1744087,13.864302 18.6288856,14.4877569 C18.0833625,15.1112119 17.1357186,15.1743881 16.5122636,14.628865 L11.0000206,9.80565234 L11.0000206,11.5 C11.0000206,12.3284271 10.3284477,13 9.50002055,13 C8.67159343,13 8.00002055,12.3284271 8.00002055,11.5 L8.00002055,9.80565234 L2.48777746,14.628865 C1.86432252,15.1743881 0.91667859,15.1112119 0.371155511,14.4877569 C-0.174367568,13.864302 -0.111191306,12.916658 0.512263641,12.371135 L8.00002055,5.81934766 L8.00002055,3 L6.50002055,3 C5.67159343,3 5.00002055,2.32842712 5.00002055,1.5 C5.00002055,0.671572875 5.67159343,0 6.50002055,0 L12.5827831,0 C13.4112102,0 14.0827831,0.671572875 14.0827831,1.5 C14.0827831,2.32842712 13.4112102,3 12.5827831,3 L11.0000206,3 Z"></path>
                                </g>
                            </g>
                        </g>
                    </g>
                </g>
            </g>
        </g>
    </g>
</svg>