<?xml version="1.0" encoding="UTF-8"?>
<svg width="34px" height="21px" viewBox="0 0 34 21" version="1.1" xmlns="http://www.w3.org/2000/svg" xmlns:xlink="http://www.w3.org/1999/xlink">
    <!-- Generator: Sketch 44.1 (41455) - http://www.bohemiancoding.com/sketch -->
    <title>Combined Shape</title>
    <desc>Created with Sketch.</desc>
    <defs></defs>
    <g id="Page-1" stroke="none" stroke-width="1" fill="none" fill-rule="evenodd">
        <g id="Why-Petcube-—-1280-actual" transform="translate(-774.000000, -2780.000000)" fill-rule="nonzero" fill="#FFFFFF">
            <g id="4" transform="translate(-20.000000, 2258.000000)">
                <g id="icons" transform="translate(261.000000, 518.000000)">
                    <g id="3" transform="translate(440.000000, 3.000000)">
                        <path d="M106.937379,6.59231809 C107.911396,7.72161319 108.838646,8.49652329 109.508188,8.74450174 C109.635875,8.79179312 109.728793,8.81014727 109.787627,8.81014727 C109.870585,8.81014727 110.011253,8.77640386 110.205044,8.69086834 C110.894799,8.38642492 111.791732,7.62982114 112.733779,6.56835939 C112.913367,6.3660076 113.090329,6.15770488 113.263773,5.94547165 C111.105226,5.27766777 108.787601,5.40574085 106.515035,6.08472685 C106.653661,6.25720538 106.7946,6.42677685 106.937379,6.59231809 Z M111.540695,12.9947517 C111.701256,12.9384311 111.86127,12.8749064 112.020727,12.8045253 C113.424524,12.1849184 114.763597,11.0553498 116.096854,9.55308825 C116.736777,8.83204892 117.334645,8.06800034 117.878693,7.30442394 C118.207141,6.84344428 118.449007,6.47836335 118.588852,6.25461092 C119.245973,5.20321782 118.9279,3.81830659 117.877881,3.15899236 C117.171024,2.71515202 116.43928,2.34237647 115.685833,2.03850995 C111.967413,0.538864189 108.082147,0.773871819 104.414117,2.03817173 C103.297528,2.42303849 102.451214,2.81625899 101.940576,3.10349258 C100.836841,3.72434371 100.463399,5.133854 101.11494,6.21975557 C101.249945,6.44476421 101.483511,6.81114225 101.801395,7.27351929 C102.327886,8.03932367 102.908372,8.80564139 103.53238,9.52912955 C104.960335,11.184729 106.401054,12.3887491 107.946475,12.9611272 C107.97242,12.9707363 107.998382,12.9801566 108.024362,12.9893867 L107.724918,13.4742001 C107.667402,13.5673219 107.521628,13.7795187 107.295377,14.0698035 C106.905131,14.5704963 106.448113,15.0733639 105.935541,15.5380963 C104.557294,16.7877064 103.073159,17.5034593 101.543969,17.5034593 C100.296079,17.5034593 99.3054279,16.8373316 98.4684483,15.5818622 C98.138365,15.0867371 97.8646326,14.5420657 97.6503128,13.9969479 C97.5249447,13.6780767 97.4516781,13.4454979 97.4266304,13.3478118 C97.1182263,12.145036 95.893173,11.4200044 94.6903972,11.7284085 C93.4876214,12.0368125 92.7625898,13.2618659 93.0709939,14.4646417 C93.3157866,15.4193332 93.8330857,16.7350722 94.7271003,18.0760942 C96.3257469,20.4740641 98.5950875,22 101.543969,22 C104.342699,22 106.821141,20.8047231 108.955817,18.8692835 C109.263054,18.5907216 109.547687,18.312308 109.809562,18.0388533 C110.078925,18.315338 110.371426,18.5971537 110.686647,18.8791939 C112.842096,20.8077535 115.296721,22 118.031285,22 C121.043728,22 123.339603,20.4694168 124.915421,18.0593427 C125.800577,16.7055738 126.294159,15.3780083 126.517137,14.4117717 C126.796342,13.2018843 126.041874,11.9947367 124.831987,11.7155319 C123.6221,11.4363271 122.414952,12.1907944 122.135747,13.4006818 C122.114204,13.494036 122.047791,13.722094 121.931049,14.0360908 C121.731146,14.5737596 121.470833,15.1109136 121.151953,15.5986137 C120.338983,16.8419789 119.346762,17.5034593 118.031285,17.5034593 C116.569078,17.5034593 115.08923,16.784676 113.684917,15.528186 C113.159812,15.0583548 112.687206,14.5498544 112.27993,14.0432433 C112.042979,13.7484997 111.888231,13.5318521 111.825092,13.4342744 L111.540695,12.9947517 Z" id="Combined-Shape"></path>
                    </g>
                </g>
            </g>
        </g>
    </g>
</svg>