<?xml version="1.0" encoding="UTF-8"?>
<svg width="22px" height="23px" viewBox="0 0 22 23" version="1.1" xmlns="http://www.w3.org/2000/svg" xmlns:xlink="http://www.w3.org/1999/xlink">
    <!-- Generator: Sketch 45 (43475) - http://www.bohemiancoding.com/sketch -->
    <title>1</title>
    <desc>Created with Sketch.</desc>
    <defs></defs>
    <g id="Page-1" stroke="none" stroke-width="1" fill="none" fill-rule="evenodd" opacity="0.7">
        <g id="Why-Petcube-—-1280-actual" transform="translate(-728.000000, -3431.000000)" fill-rule="nonzero" fill="#000000">
            <g id="5" transform="translate(156.000000, 3087.000000)">
                <g id="icons" transform="translate(571.000000, 340.000000)">
                    <g id="icons-copy" transform="translate(0.000000, 4.000000)">
                        <g id="1" transform="translate(1.000000, 0.000000)">
                            <path d="M4.76089135,7.44018203 C2.9084625,7.43724953 1.27724047,8.65942667 0.759644918,10.4380767 C0.242049365,12.2167268 0.962780582,14.1233334 2.5275362,15.1148177 C4.09229182,16.106302 6.12408738,15.9437933 7.51135482,14.716198 L13.1440266,17.8410943 C12.805086,19.8389707 13.9548971,21.7904335 15.8667602,22.4621257 C17.7786232,23.1338178 19.8963284,22.3303269 20.8814506,20.5594726 C21.8665728,18.7886183 21.4325148,16.5655874 19.8536085,15.2953726 C18.2747022,14.0251578 16.0102919,14.077297 14.4915226,15.4188374 L8.85885079,12.2939411 C8.94216728,11.8354325 8.94216728,11.3656614 8.85885079,10.9071528 L14.4915226,7.78225648 C15.9626186,9.07849919 18.1390869,9.17167975 19.7155882,8.00591302 C21.2920896,6.84014629 21.8406719,4.73188776 21.0323223,2.94556764 C20.2239727,1.15924752 18.2781233,0.179774826 16.3617993,0.59458931 C14.4454753,1.00940379 13.0788762,2.70590118 13.0816212,4.66660542 C13.0830137,4.89907441 13.1038886,5.13101768 13.1440266,5.35999957 L7.51135482,8.48489588 C6.75339664,7.81159976 5.77470996,7.4398633 4.76089135,7.44018203 Z" id="Shape"></path>
                        </g>
                    </g>
                </g>
            </g>
        </g>
    </g>
</svg>