<?xml version="1.0" encoding="UTF-8"?>
<svg width="29px" height="17px" viewBox="0 0 29 17" version="1.1" xmlns="http://www.w3.org/2000/svg" xmlns:xlink="http://www.w3.org/1999/xlink">
    <!-- Generator: Sketch 44.1 (41455) - http://www.bohemiancoding.com/sketch -->
    <title>Page 1</title>
    <desc>Created with Sketch.</desc>
    <defs></defs>
    <g id="Page-1" stroke="none" stroke-width="1" fill="none" fill-rule="evenodd" opacity="0.7">
        <g id="Why-Petcube-—-1280-actual" transform="translate(-755.000000, -2105.000000)" fill="#000000">
            <g id="3" transform="translate(-41.000000, 1271.000000)">
                <g id="icons" transform="translate(261.000000, 827.000000)">
                    <g id="3" transform="translate(440.000000, 6.000000)">
                        <g id="Page-1" transform="translate(95.000000, 0.000000)">
                            <g transform="translate(0.000000, 1.000000)" id="Fill-1">
                                <path d="M14.3315985,4 L14.3315985,4 L14.3325985,4 C17.2245985,4 18.9175985,5.866 19.5765985,6.785 L14.3325985,11.391 L9.08959854,6.785 C9.74859854,5.866 11.4415985,4 14.3315985,4 M28.1695985,1.9 C27.4395985,1.071 26.1755985,0.989 25.3475985,1.717 L22.5855985,4.143 C21.3355985,2.536 18.6775985,0 14.3325985,0 L14.3315985,0 C9.98859854,0 7.33059854,2.536 6.08059854,4.143 L3.31959854,1.718 C2.48959854,0.988 1.22659854,1.07 0.496598543,1.9 C-0.231401457,2.73 -0.149401457,3.994 0.679598543,4.723 L13.0125985,15.556 C13.0385985,15.579 13.0675985,15.595 13.0955985,15.616 C13.1385985,15.65 13.1815985,15.681 13.2265985,15.711 C13.2965985,15.758 13.3675985,15.799 13.4405985,15.835 C13.4855985,15.857 13.5285985,15.88 13.5735985,15.899 C13.6585985,15.934 13.7455985,15.96 13.8335985,15.982 C13.8715985,15.992 13.9075985,16.005 13.9455985,16.013 C14.0735985,16.038 14.2025985,16.053 14.3315985,16.053 L14.3325985,16.053 L14.3335985,16.053 C14.4625985,16.053 14.5915985,16.038 14.7195985,16.013 C14.7575985,16.005 14.7935985,15.992 14.8315985,15.982 C14.9195985,15.96 15.0065985,15.934 15.0915985,15.899 C15.1365985,15.88 15.1795985,15.857 15.2245985,15.836 C15.2975985,15.799 15.3685985,15.758 15.4375985,15.712 C15.4835985,15.682 15.5275985,15.649 15.5705985,15.615 C15.5975985,15.594 15.6265985,15.579 15.6515985,15.556 L27.9855985,4.723 C28.8155985,3.994 28.8975985,2.73 28.1695985,1.9"></path>
                            </g>
                        </g>
                    </g>
                </g>
            </g>
        </g>
    </g>
</svg>